<?xml version="1.0" encoding="UTF-8" standalone="no"?>
<!-- Generator: Adobe Illustrator 14.0.0, SVG Export Plug-In . SVG Version: 6.00 Build 43363)  -->

<svg
   xmlns:dc="http://purl.org/dc/elements/1.1/"
   xmlns:cc="http://creativecommons.org/ns#"
   xmlns:rdf="http://www.w3.org/1999/02/22-rdf-syntax-ns#"
   xmlns:svg="http://www.w3.org/2000/svg"
   xmlns="http://www.w3.org/2000/svg"
   xmlns:sodipodi="http://sodipodi.sourceforge.net/DTD/sodipodi-0.dtd"
   xmlns:inkscape="http://www.inkscape.org/namespaces/inkscape"
   version="1.1"
   id="Layer_1"
   x="0px"
   y="0px"
   width="520px"
   height="300px"
   viewBox="0 0 520 300"
   enable-background="new 0 0 520 300"
   xml:space="preserve"
   inkscape:version="0.47 r22583"
   sodipodi:docname="BIsAPseudovector.svg"><metadata
   id="metadata59"><rdf:RDF><cc:Work
       rdf:about=""><dc:format>image/svg+xml</dc:format><dc:type
         rdf:resource="http://purl.org/dc/dcmitype/StillImage" /></cc:Work></rdf:RDF></metadata><defs
   id="defs57"><marker
   inkscape:stockid="Arrow2Mstart"
   orient="auto"
   refY="0.0"
   refX="0.0"
   id="Arrow2Mstart"
   style="overflow:visible"><path
     id="path3797"
     style="font-size:12.0;fill-rule:evenodd;stroke-width:0.62500000;stroke-linejoin:round"
     d="M 8.7185878,4.0337352 L -2.2072895,0.016013256 L 8.7185884,-4.0017078 C 6.9730900,-1.6296469 6.9831476,1.6157441 8.7185878,4.0337352 z "
     transform="scale(0.6) translate(0,0)" /></marker><marker
   inkscape:stockid="Arrow2Mend"
   orient="auto"
   refY="0.0"
   refX="0.0"
   id="Arrow2Mend"
   style="overflow:visible;"><path
     id="path3800"
     style="font-size:12.0;fill-rule:evenodd;stroke-width:0.62500000;stroke-linejoin:round;"
     d="M 8.7185878,4.0337352 L -2.2072895,0.016013256 L 8.7185884,-4.0017078 C 6.9730900,-1.6296469 6.9831476,1.6157441 8.7185878,4.0337352 z "
     transform="scale(0.6) rotate(180) translate(0,0)" /></marker><inkscape:perspective
   sodipodi:type="inkscape:persp3d"
   inkscape:vp_x="0 : 150 : 1"
   inkscape:vp_y="0 : 1000 : 0"
   inkscape:vp_z="520 : 150 : 1"
   inkscape:persp3d-origin="260 : 100 : 1"
   id="perspective61" /><inkscape:perspective
   id="perspective3653"
   inkscape:persp3d-origin="0.5 : 0.33333333 : 1"
   inkscape:vp_z="1 : 0.5 : 1"
   inkscape:vp_y="0 : 1000 : 0"
   inkscape:vp_x="0 : 0.5 : 1"
   sodipodi:type="inkscape:persp3d" /><inkscape:perspective
   id="perspective3704"
   inkscape:persp3d-origin="0.5 : 0.33333333 : 1"
   inkscape:vp_z="1 : 0.5 : 1"
   inkscape:vp_y="0 : 1000 : 0"
   inkscape:vp_x="0 : 0.5 : 1"
   sodipodi:type="inkscape:persp3d" /><inkscape:perspective
   id="perspective3726"
   inkscape:persp3d-origin="0.5 : 0.33333333 : 1"
   inkscape:vp_z="1 : 0.5 : 1"
   inkscape:vp_y="0 : 1000 : 0"
   inkscape:vp_x="0 : 0.5 : 1"
   sodipodi:type="inkscape:persp3d" />
	
	
	
	
<inkscape:perspective
   id="perspective7040"
   inkscape:persp3d-origin="0.5 : 0.33333333 : 1"
   inkscape:vp_z="1 : 0.5 : 1"
   inkscape:vp_y="0 : 1000 : 0"
   inkscape:vp_x="0 : 0.5 : 1"
   sodipodi:type="inkscape:persp3d" /><marker
   inkscape:stockid="Arrow2Mend"
   orient="auto"
   refY="0"
   refX="0"
   id="Arrow2Mend-1"
   style="overflow:visible"><path
     id="path3800-7"
     style="font-size:12px;fill-rule:evenodd;stroke-width:0.625;stroke-linejoin:round"
     d="M 8.7185878,4.0337352 -2.2072895,0.01601326 8.7185884,-4.0017078 c -1.7454984,2.3720609 -1.7354408,5.6174519 -6e-7,8.035443 z"
     transform="scale(-0.6,-0.6)" /></marker><inkscape:perspective
   id="perspective7076"
   inkscape:persp3d-origin="0.5 : 0.33333333 : 1"
   inkscape:vp_z="1 : 0.5 : 1"
   inkscape:vp_y="0 : 1000 : 0"
   inkscape:vp_x="0 : 0.5 : 1"
   sodipodi:type="inkscape:persp3d" /><marker
   inkscape:stockid="Arrow2Mend"
   orient="auto"
   refY="0"
   refX="0"
   id="Arrow2Mend-15"
   style="overflow:visible"><path
     id="path3800-2"
     style="font-size:12px;fill-rule:evenodd;stroke-width:0.625;stroke-linejoin:round"
     d="M 8.7185878,4.0337352 -2.2072895,0.01601326 8.7185884,-4.0017078 c -1.7454984,2.3720609 -1.7354408,5.6174519 -6e-7,8.035443 z"
     transform="scale(-0.6,-0.6)" /></marker><marker
   inkscape:stockid="Arrow2Mend"
   orient="auto"
   refY="0"
   refX="0"
   id="marker7082"
   style="overflow:visible"><path
     id="path7084"
     style="font-size:12px;fill-rule:evenodd;stroke-width:0.625;stroke-linejoin:round"
     d="M 8.7185878,4.0337352 -2.2072895,0.01601326 8.7185884,-4.0017078 c -1.7454984,2.3720609 -1.7354408,5.6174519 -6e-7,8.035443 z"
     transform="scale(-0.6,-0.6)" /></marker><marker
   inkscape:stockid="Arrow2Mend"
   orient="auto"
   refY="0"
   refX="0"
   id="marker7086"
   style="overflow:visible"><path
     id="path7088"
     style="font-size:12px;fill-rule:evenodd;stroke-width:0.625;stroke-linejoin:round"
     d="M 8.7185878,4.0337352 -2.2072895,0.01601326 8.7185884,-4.0017078 c -1.7454984,2.3720609 -1.7354408,5.6174519 -6e-7,8.035443 z"
     transform="scale(-0.6,-0.6)" /></marker></defs><sodipodi:namedview
   pagecolor="#ffffff"
   bordercolor="#666666"
   borderopacity="1"
   objecttolerance="10"
   gridtolerance="10"
   guidetolerance="10"
   inkscape:pageopacity="0"
   inkscape:pageshadow="2"
   inkscape:window-width="1600"
   inkscape:window-height="1153"
   id="namedview55"
   showgrid="false"
   inkscape:zoom="5.3374318"
   inkscape:cx="116.88579"
   inkscape:cy="217.40893"
   inkscape:window-x="1596"
   inkscape:window-y="-4"
   inkscape:window-maximized="1"
   inkscape:current-layer="Layer_1" />
<path
   fill="none"
   stroke="#000000"
   stroke-width="2"
   d="M171.287,106.173c20.196,14.187,7.662,42.473-27.995,63.179  S62.357,195.344,42.16,181.156c-20.196-14.187-7.663-42.473,27.995-63.179C105.813,97.271,151.091,91.986,171.287,106.173z"
   id="path3" />
<path
   fill="none"
   stroke="#000000"
   stroke-width="2.816"
   stroke-dasharray="22.5281,22.5281"
   d="M256.724,30.629v266.849"
   id="path5" />
<path
   d="M180.813,146.469l-10,10.594l2.625-0.844c-3.847,4.824-8.818,9.641-14.688,14.156c-9.312,7.164-20.854,13.582-33.156,18.438  c-12.304,4.855-25.365,8.136-37.438,9.406h-0.031c-12.061,1.267-23.14,0.537-31.781-2.063l-0.563,1.905  c8.999,2.707,20.315,3.418,32.594,2.125c12.27-1.292,25.448-4.587,37.906-9.5h0.031c12.428-4.903,24.092-11.416,33.563-18.688  l0.094-0.063c6.673-5.135,12.24-10.653,16.375-16.219l1.594,5.031L180.813,146.469L180.813,146.469z"
   id="path7" />

<path
   d="m 131.009,200.094 26.48767,66.429"
   id="path11"
   stroke-width="2"
   stroke="#0000FF"
   fill="none"
   sodipodi:nodetypes="cc" />

<path
   d="m 81.024424,276.264 c 0,0 14.614849,-41.38079 10.318,-67.44339"
   id="path15"
   sodipodi:nodetypes="cc"
   stroke-width="2"
   stroke="#0000FF"
   fill="none" />
<path
   d="m 204.51896,239.37767 c 0,0 -32.87769,-26.15688 -44.31916,-51.60804"
   id="path17"
   style="fill:none;stroke:#0000ff;stroke-width:2;stroke-miterlimit:4;stroke-dasharray:none"
   sodipodi:nodetypes="cc" />









<text
   style="font-size:36px;font-style:italic;fill:#0000ff;font-family:serif"
   id="text39"
   x="81.3311"
   y="45">B</text>

<text
   style="font-size:36px;font-style:italic;fill:#0000ff;font-family:serif"
   id="text41"
   x="421.61499"
   y="45">B</text>

<text
   style="font-size:36px;font-style:italic;font-family:serif"
   id="text43"
   x="186.209"
   y="128.923">I</text>

<text
   style="font-size:36px;font-style:italic;font-family:serif"
   id="text45"
   x="315.79401"
   y="128.923">I</text>


<path
   fill="#0000FF"
   d="M98.188,13l1.5,1.5H86.813v1h12.875l-1.5,1.5l7-2L98.188,13z"
   id="path47" />

<path
   d="M198.188,96.954l1.5,1.5h-12.875v1h12.875l-1.5,1.5l7-2L198.188,96.954z"
   id="path51" />
<path
   d="m 327.188,96.954 1.5,1.5 h -12.875 v 1 h 12.875 l -1.5,1.5 7,-2 -7,-2 z"
   id="path53" />
<path
   style="fill:none;stroke:#000000;stroke-width:2"
   d="m 341.79657,105.83077 c -20.196,14.187 -7.662,42.473 27.995,63.179 35.657,20.706 80.935,25.992 101.132,11.804 20.196,-14.187 7.663,-42.473 -27.995,-63.179 -35.658,-20.706 -80.936,-25.991 -101.132,-11.804 z"
   id="path3-1" /><path
   d="m 332.27057,146.12677 10,10.594 -2.625,-0.844 c 3.847,4.824 8.818,9.641 14.688,14.156 9.312,7.164 20.854,13.582 33.156,18.438 12.304,4.855 25.365,8.136 37.438,9.406 l 0.031,0 c 12.061,1.267 23.14,0.537 31.781,-2.063 l 0.563,1.905 c -8.999,2.707 -20.315,3.418 -32.594,2.125 -12.27,-1.292 -25.448,-4.587 -37.906,-9.5 l -0.031,0 c -12.428,-4.903 -24.092,-11.416 -33.563,-18.688 l -0.094,-0.063 c -6.673,-5.135 -12.24,-10.653 -16.375,-16.219 l -1.594,5.031 -2.875,-14.278 0,0 z"
   id="path7-7" /><path
   id="path11-0"
   d="m 381.15625,199.375 -26.5,66.4375 1.875,0.75 L 383,200.125 l -1.84375,-0.75 z"
   style="font-size:medium;font-style:normal;font-variant:normal;font-weight:normal;font-stretch:normal;text-indent:0;text-align:start;text-decoration:none;line-height:normal;letter-spacing:normal;word-spacing:normal;text-transform:none;direction:ltr;block-progression:tb;writing-mode:lr-tb;text-anchor:start;color:#000000;fill:#0000ff;fill-opacity:1;stroke:none;stroke-width:2;marker:none;visibility:visible;display:inline;overflow:visible;enable-background:accumulate;font-family:Bitstream Vera Sans;-inkscape-font-specification:Bitstream Vera Sans" /><path
   id="path2869"
   style="font-size:12px;fill-rule:evenodd;stroke-width:0.62500000000000000;stroke-linejoin:round;fill:#0000ff"
   d="m 363.95815,258.25535 -9.33444,10.39291 0.37767,-13.9643 c 1.86824,2.9999 5.49021,4.43112 8.95677,3.57139 z" /><g
   id="g2883"
   style="fill:#0000ff"><path
     style="font-size:medium;font-style:normal;font-variant:normal;font-weight:normal;font-stretch:normal;text-indent:0;text-align:start;text-decoration:none;line-height:normal;letter-spacing:normal;word-spacing:normal;text-transform:none;direction:ltr;block-progression:tb;writing-mode:lr-tb;text-anchor:start;color:#000000;fill:#0000ff;fill-opacity:1;stroke:none;stroke-width:2;marker:none;visibility:visible;display:inline;overflow:visible;enable-background:accumulate;font-family:Bitstream Vera Sans;-inkscape-font-specification:Bitstream Vera Sans"
     d="m 420.75,208.3125 c -2.19185,13.29466 0.43255,30.21372 3.5625,43.875 3.12995,13.66128 6.8125,24.0625 6.8125,24.0625 L 433,275.59375 c 0,0 -3.64674,-10.29898 -6.75,-23.84375 -3.10326,-13.54477 -5.63625,-30.32581 -3.53125,-43.09375 L 420.75,208.3125 z"
     id="path15-4" /><path
     d="m 433.13918,264.44468 -0.17983,13.96825 -8.9123,-10.7571 c 3.38153,1.02711 7.04969,-0.28121 9.09213,-3.21115 z"
     style="font-size:12px;fill-rule:evenodd;stroke-width:0.62500000000000000;stroke-linejoin:round;fill:#0000ff"
     id="path2889" /></g><path
   id="path17-8"
   d="m 351.96875,187.03125 c -5.62639,12.51572 -16.64245,25.353 -26.25,35.03125 -9.60755,9.67825 -17.78125,16.1875 -17.78125,16.1875 l 1.25,1.5625 c 0,0 8.27709,-6.58077 17.96875,-16.34375 9.69166,-9.76298 20.80992,-22.68956 26.625,-35.625 l -1.8125,-0.8125 z"
   style="font-size:medium;font-style:normal;font-variant:normal;font-weight:normal;font-stretch:normal;text-indent:0;text-align:start;text-decoration:none;line-height:normal;letter-spacing:normal;word-spacing:normal;text-transform:none;direction:ltr;block-progression:tb;writing-mode:lr-tb;text-anchor:start;color:#000000;fill:#0000ff;fill-opacity:1;stroke:none;stroke-width:2;marker:none;visibility:visible;display:inline;overflow:visible;enable-background:accumulate;font-family:Bitstream Vera Sans;-inkscape-font-specification:Bitstream Vera Sans" /><path
   id="path2877"
   style="font-size:12px;fill-rule:evenodd;stroke-width:0.62500000000000000;stroke-linejoin:round;fill:#0000ff"
   d="m 319.76552,236.3097 -13.26173,4.38985 7.25844,-11.93563 c 0.13304,3.53157 2.56712,6.57169 6.00329,7.54578 z" /><path
   style="fill:#0000ff"
   d="m 438.21501,12.940879 1.5,1.5 h -12.875 v 1 h 12.875 l -1.5,1.5 7,-2 -7,-2 z"
   id="path47-2" /><g
   id="g2907"
   style="fill:#0000ff"><path
     style="font-size:medium;font-style:normal;font-variant:normal;font-weight:normal;font-stretch:normal;text-indent:0;text-align:start;text-decoration:none;line-height:normal;letter-spacing:normal;word-spacing:normal;text-transform:none;direction:ltr;block-progression:tb;writing-mode:lr-tb;text-anchor:start;color:#000000;fill:#0000ff;fill-opacity:1;stroke:none;stroke-width:2;marker:none;visibility:visible;display:inline;overflow:visible;enable-background:accumulate;font-family:Bitstream Vera Sans;-inkscape-font-specification:Bitstream Vera Sans"
     d="m 22.71875,98.1875 -0.9375,1.78125 c 39.113926,21.14191 51.375,54.84375 51.375,54.84375 l 1.875,-0.6875 c 0,0 -12.56855,-34.45505 -52.3125,-55.9375 z"
     id="path6468" /><path
     d="m 29.144805,108.31165 -9.241441,-10.475692 13.826502,1.993024 c -3.196155,1.508088 -5.037373,4.939848 -4.585061,8.482668 z"
     style="font-size:12px;fill-rule:evenodd;stroke-width:0.62500000000000000;stroke-linejoin:round;fill:#0000ff"
     id="path2913" /></g><g
   id="g2891"
   style="fill:#0000ff"><path
     style="font-size:medium;font-style:normal;font-variant:normal;font-weight:normal;font-stretch:normal;text-indent:0;text-align:start;text-decoration:none;line-height:normal;letter-spacing:normal;word-spacing:normal;text-transform:none;direction:ltr;block-progression:tb;writing-mode:lr-tb;text-anchor:start;color:#000000;fill:#0000ff;fill-opacity:1;stroke:none;stroke-width:2;marker:none;visibility:visible;display:inline;overflow:visible;enable-background:accumulate;font-family:Bitstream Vera Sans;-inkscape-font-specification:Bitstream Vera Sans"
     d="M 74.65625,57.25 72.8125,58 l 34.9375,86.84375 1.84375,-0.75 L 74.65625,57.25 z"
     id="path6844" /><path
     d="M 73.143445,69.129362 72.722881,55.166288 82.089196,65.53048 c -3.422551,-0.88085 -7.031096,0.58388 -8.945751,3.598882 z"
     style="font-size:12px;fill-rule:evenodd;stroke-width:0.62500000000000000;stroke-linejoin:round;fill:#0000ff"
     id="path2897" /></g><g
   id="g2899"
   style="fill:#0000ff"><path
     style="font-size:medium;font-style:normal;font-variant:normal;font-weight:normal;font-stretch:normal;text-indent:0;text-align:start;text-decoration:none;line-height:normal;letter-spacing:normal;word-spacing:normal;text-transform:none;direction:ltr;block-progression:tb;writing-mode:lr-tb;text-anchor:start;color:#000000;fill:#0000ff;fill-opacity:1;stroke:none;stroke-width:2;marker:none;visibility:visible;display:inline;overflow:visible;enable-background:accumulate;font-family:Bitstream Vera Sans;-inkscape-font-specification:Bitstream Vera Sans"
     d="m 153.875,59.65625 c -20.15154,39.679395 -10.5625,74.4375 -10.5625,74.4375 l 1.9375,-0.53125 c 0,0 -9.38566,-33.967191 10.4375,-73 l -1.8125,-0.90625 z"
     id="path6468-1" /><path
     d="m 145.72754,67.256176 10.2355,-9.506783 -1.63815,13.873023 c -1.58948,-3.15647 -5.06728,-4.909166 -8.59735,-4.36624 z"
     style="font-size:12px;fill-rule:evenodd;stroke-width:0.62500000000000000;stroke-linejoin:round;fill:#0000ff"
     id="path2905" /></g><path
   style="fill:none;stroke:#0000ff;stroke-width:2;stroke-linecap:butt;stroke-linejoin:miter;stroke-miterlimit:4;stroke-opacity:1;stroke-dasharray:none;marker-start:none;marker-end:none"
   d="m 439.39595,155.40555 c 0,0 12.43385,-34.08667 51.86279,-55.39885"
   id="path6468-7" /><path
   style="fill:none;stroke:#0000ff;stroke-width:2;stroke-linecap:butt;stroke-linejoin:miter;stroke-miterlimit:4;stroke-opacity:1;stroke-dasharray:none;marker-end:none"
   d="M 404.83594,145.38546 439.77208,58.544623"
   id="path6844-6" /><path
   style="fill:none;stroke:#0000ff;stroke-width:2;stroke-linecap:butt;stroke-linejoin:miter;stroke-miterlimit:4;stroke-opacity:1;stroke-dasharray:none;marker-start:none;marker-end:none"
   d="m 369.22635,134.75392 c 0,0 9.48159,-34.34992 -10.50576,-73.706024"
   id="path6468-1-1" /></svg>